# xmcd
#
# Track frame offsets: 
#        150
#        18822
#        38532
#        57648
#        81856
#        99116
#        115734
#        133299
#        154954
#        167726
#        183313
#
# Disc length: 2772 seconds
#
# Revision: 0
# Processed by: cddbd v1.5.2PL0 Copyright (c) Steve Scherf et al.
# Submitted via: ExactAudioCopy v0.95a5
#
DISCID=850ad20b
DTITLE=Obstawa Prezydenta - O nic mnie nie pytaj
DYEAR=2009
DGENRE=Blues
TTITLE0=jak odnalezc siebie
TTITLE1=gdy sie kocha
TTITLE2=wszedzie ja widze
TTITLE3=blues samotnosci
TTITLE4=kusisz mnie kusisz
TTITLE5=w glowie mam tylko amory
TTITLE6=nikt w to nie wierzy
TTITLE7=spokoj mam
TTITLE8=poscielowa
TTITLE9=mozesz mowic mi wszystko
TTITLE10=dla dinga
EXTD=
EXTT0=
EXTT1=
EXTT2=
EXTT3=
EXTT4=
EXTT5=
EXTT6=
EXTT7=
EXTT8=
EXTT9=
EXTT10=
PLAYORDER=
